<svg width="130" height="132" viewBox="0 0 130 132" fill="none" xmlns="http://www.w3.org/2000/svg">
<path d="M76.9769 36.6468L80.2996 47.6119L71.8266 44.6214L76.3123 51.1006L70.4975 65.887L46.9891 42.2954L51.0595 56.5746L44.4139 51.433L26.8035 59.4076L35.1102 58.577L19.8082 64.4496C20.2964 64.7285 20.861 64.8887 21.4634 64.8887H45.8453V89.2707C45.8453 91.1159 47.3411 92.6119 49.1865 92.6119H79.4719C81.3172 92.6119 82.8131 91.1159 82.8131 89.2707V64.8887H107.195C108.377 64.8887 109.415 64.2743 110.009 63.3482L76.9769 36.6468Z" fill="#141E39"/>
<path d="M77.1975 20.985C76.4511 24.3858 73.9625 24.4687 71.8889 25.4642C69.8153 26.4595 69.4835 29.4456 69.4835 29.4456C68.1563 24.22 75.1239 18.7455 75.1239 18.7455C70.313 20.2385 68.9858 24.8006 68.9858 24.8006C68.9858 24.8006 68.6625 20.4873 70.6447 18.4966C73.7912 15.3368 79.7689 16.1741 79.7689 16.1741C78.5247 16.5888 77.9441 17.5842 77.1975 20.985ZM67.3729 21.4835C67.3729 21.4835 65.098 13.6635 56.8515 11.1043C56.8515 11.1043 68.7947 20.4881 66.5198 29.4456C66.5198 29.4456 65.9511 24.3271 62.3966 22.6208C58.842 20.9148 54.5766 20.7726 53.297 14.9431C52.0174 9.1137 51.0221 7.40762 48.8894 6.69672C48.8894 6.69672 59.136 5.26156 64.5293 10.6777C67.9272 14.09 67.3729 21.4835 67.3729 21.4835ZM107.195 27.9209H82.813V3.53894C82.813 1.6937 81.3171 0.197742 79.4719 0.197742H49.1865C47.3412 0.197742 45.8453 1.6937 45.8453 3.53894V27.9209H21.4633C19.6181 27.9209 18.1221 29.4169 18.1221 31.2621V59.4621L46.2414 37.1452L54.8806 44.4552L75.98 29.4456L110.536 58.5388V31.2621C110.536 29.4169 109.04 27.9209 107.195 27.9209Z" fill="#377E23"/>
<path d="M6.66979 106.449C7.0478 106.064 7.50606 105.769 8.04457 105.565C8.5825 105.362 9.17906 105.26 9.8338 105.26C10.5755 105.26 11.2484 105.402 11.852 105.685C12.4554 105.969 13.0194 106.394 13.5431 106.962L16.2924 104.474C15.5506 103.572 14.6122 102.881 13.4777 102.401C12.3429 101.921 11.0556 101.681 9.61555 101.681C8.37891 101.681 7.24051 101.874 6.20064 102.259C5.16048 102.645 4.26195 103.194 3.50577 103.907C2.7493 104.62 2.16015 105.46 1.73845 106.427C1.31632 107.395 1.10548 108.46 1.10548 109.624C1.10548 110.788 1.31632 111.853 1.73845 112.82C2.16015 113.788 2.74553 114.628 3.49489 115.341C4.24395 116.054 5.13494 116.603 6.16799 116.988C7.20046 117.373 8.32058 117.566 9.5282 117.566C10.6335 117.566 11.761 117.399 12.9103 117.064C14.0593 116.73 15.0706 116.25 15.9433 115.624V109.296H12.1248V113.486C11.9716 113.557 11.8189 113.619 11.6667 113.671C11.0556 113.882 10.4301 113.988 9.79012 113.988C9.14974 113.988 8.56436 113.882 8.0334 113.671C7.50229 113.461 7.0478 113.162 6.66979 112.777C6.29133 112.391 5.99676 111.93 5.78591 111.391C5.57506 110.853 5.46957 110.264 5.46957 109.624C5.46957 108.955 5.57506 108.355 5.78591 107.824C5.99676 107.293 6.29133 106.835 6.66979 106.449Z" fill="#141E39"/>
<path d="M23.7367 111.108L25.6967 106.224L27.6567 111.108H23.7367ZM23.602 101.987L16.8596 117.261H21.2673L22.4583 114.293H28.9352L30.1261 117.261H34.6212L27.8569 101.987H23.602Z" fill="#141E39"/>
<path d="M44.582 105.98C45.0256 106.373 45.2476 106.926 45.2476 107.638C45.2476 108.336 45.0256 108.882 44.582 109.275C44.1379 109.667 43.4655 109.864 42.5636 109.864H40.1634V105.391H42.5636C43.4655 105.391 44.1379 105.587 44.582 105.98ZM48.7824 110.616C49.3351 109.78 49.6114 108.787 49.6114 107.638C49.6114 106.474 49.3351 105.467 48.7824 104.616C48.2293 103.765 47.4475 103.114 46.4366 102.663C45.4253 102.212 44.2219 101.987 42.8255 101.987H35.843V117.261H40.1634V113.202H42.5218L45.2913 117.261H49.917L46.6161 112.451C47.5392 112.012 48.263 111.402 48.7824 110.616Z" fill="#141E39"/>
<path d="M51.9895 117.261H56.3099V101.987H51.9895V117.261Z" fill="#141E39"/>
<path d="M68.9764 113.759C68.5907 114.013 68.0272 114.14 67.2853 114.14H63.6631V111.042H67.2853C68.0272 111.042 68.5907 111.169 68.9764 111.424C69.3615 111.678 69.5545 112.068 69.5545 112.591C69.5545 113.115 69.3615 113.504 68.9764 113.759ZM66.6308 105.107C67.3578 105.107 67.9033 105.227 68.2672 105.467C68.6306 105.707 68.8126 106.075 68.8126 106.569C68.8126 107.063 68.6306 107.435 68.2672 107.682C67.9033 107.929 67.3578 108.053 66.6308 108.053H63.6631V105.107H66.6308ZM71.3874 109.395C71.2963 109.357 71.2029 109.323 71.1081 109.29C71.7145 108.966 72.1973 108.55 72.5549 108.042C72.9696 107.453 73.1767 106.765 73.1767 105.98C73.1767 104.787 72.6821 103.823 71.693 103.089C70.7035 102.354 69.2054 101.987 67.1979 101.987H59.3864V117.261H67.6344C69.6856 117.261 71.2458 116.894 72.3148 116.159C73.3839 115.424 73.9188 114.395 73.9188 113.071C73.9188 112.184 73.6967 111.431 73.2533 110.813C72.8091 110.195 72.1873 109.722 71.3874 109.395Z" fill="#141E39"/>
<path d="M81.2104 111.108L83.1704 106.224L85.1304 111.108H81.2104ZM81.0757 101.987L74.3332 117.261H78.741L79.9319 114.293H86.4088L87.5998 117.261H92.0948L85.3307 101.987H81.0757Z" fill="#141E39"/>
<path d="M97.6369 101.987H93.3165V117.261H104.925V113.835H97.6369V101.987Z" fill="#141E39"/>
<path d="M117.471 111.882C117.107 112.515 116.602 112.995 115.955 113.322C115.307 113.65 114.547 113.813 113.675 113.813H110.947V105.434H113.675C114.547 105.434 115.307 105.598 115.955 105.925C116.602 106.252 117.107 106.729 117.471 107.354C117.835 107.98 118.017 108.737 118.017 109.624C118.017 110.496 117.835 111.249 117.471 111.882ZM118.3 102.925C117.02 102.3 115.536 101.987 113.849 101.987H106.627V117.261H113.849C115.536 117.261 117.02 116.948 118.3 116.323C119.58 115.697 120.581 114.814 121.301 113.671C122.021 112.53 122.381 111.18 122.381 109.624C122.381 108.053 122.021 106.7 121.301 105.565C120.581 104.43 119.58 103.551 118.3 102.925Z" fill="#141E39"/>
<path d="M124.65 117.261H128.97V101.987H124.65V117.261Z" fill="#141E39"/>
<path d="M6.16571 126.296C5.89972 126.531 5.49675 126.649 4.95635 126.649H3.51829V123.968H4.95635C5.49675 123.968 5.89972 124.086 6.16571 124.321C6.43156 124.557 6.56448 124.888 6.56448 125.315C6.56448 125.733 6.43156 126.06 6.16571 126.296ZM7.27698 122.334C6.67114 122.064 5.95008 121.929 5.11336 121.929H0.929646V131.081H3.51829V128.688H5.11336C5.95008 128.688 6.67114 128.551 7.27698 128.276C7.88267 128.002 8.35124 127.612 8.68253 127.106C9.01367 126.601 9.17939 126.004 9.17939 125.315C9.17939 124.618 9.01367 124.014 8.68253 123.504C8.35124 122.994 7.88267 122.604 7.27698 122.334Z" fill="#141E39"/>
<path d="M23.3515 125.367H19.8217V121.929H17.2329V131.081H19.8217V127.511H23.3515V131.081H25.9402V121.929H23.3515V125.367Z" fill="#141E39"/>
<path d="M37.5914 127.394L38.7658 124.467L39.9402 127.394H37.5914ZM37.5106 121.929L33.4708 131.081H36.1119L36.8254 129.303H40.7062L41.4199 131.081H44.113L40.0602 121.929H37.5106Z" fill="#141E39"/>
<path d="M56.8798 124.321C57.1455 124.557 57.2786 124.888 57.2786 125.315C57.2786 125.733 57.1455 126.06 56.8798 126.295C56.6138 126.531 56.2108 126.649 55.6704 126.649H54.2324V123.968H55.6704C56.2108 123.968 56.6138 124.086 56.8798 124.321ZM59.3966 127.1C59.7276 126.598 59.8933 126.004 59.8933 125.315C59.8933 124.618 59.7276 124.014 59.3966 123.504C59.0652 122.994 58.5968 122.604 57.9911 122.334C57.3851 122.064 56.6642 121.929 55.8273 121.929H51.6436V131.081H54.2324V128.649H55.6453L57.3047 131.081H60.0763L58.0987 128.199C58.6518 127.936 59.0854 127.57 59.3966 127.1Z" fill="#141E39"/>
<path d="M76.6019 121.929L73.4694 127.216L70.2479 121.929H68.1168V131.081H70.5094V126.361L72.8496 130.179H74L76.3567 126.225L76.3796 131.081H78.759L78.733 121.929H76.6019Z" fill="#141E39"/>
<path d="M90.4101 127.394L91.5845 124.467L92.7589 127.394H90.4101ZM90.3293 121.929L86.2895 131.081H88.9306L89.6441 129.303H93.5249L94.2386 131.081H96.9317L92.8789 121.929H90.3293Z" fill="#141E39"/>
<path d="M107.188 124.602C107.41 124.372 107.679 124.195 107.992 124.073C108.306 123.951 108.65 123.89 109.025 123.89C109.461 123.89 109.855 123.981 110.208 124.164C110.561 124.348 110.886 124.614 111.182 124.962L112.83 123.471C112.385 122.914 111.83 122.487 111.163 122.19C110.496 121.894 109.74 121.746 108.895 121.746C108.171 121.746 107.502 121.861 106.888 122.092C106.273 122.323 105.741 122.652 105.293 123.079C104.844 123.506 104.493 124.01 104.24 124.589C103.987 125.169 103.861 125.808 103.861 126.505C103.861 127.202 103.987 127.841 104.24 128.42C104.493 129 104.844 129.503 105.293 129.93C105.741 130.357 106.273 130.686 106.888 130.917C107.502 131.148 108.171 131.264 108.895 131.264C109.74 131.264 110.496 131.113 111.163 130.813C111.83 130.512 112.385 130.087 112.83 129.538L111.182 128.047C110.886 128.396 110.561 128.662 110.208 128.845C109.855 129.028 109.461 129.12 109.025 129.12C108.65 129.12 108.306 129.059 107.992 128.937C107.679 128.815 107.41 128.638 107.188 128.407C106.966 128.176 106.792 127.899 106.665 127.577C106.539 127.254 106.476 126.897 106.476 126.505C106.476 126.113 106.539 125.755 106.665 125.433C106.792 125.11 106.966 124.834 107.188 124.602Z" fill="#141E39"/>
<path d="M129.146 121.929H126.636L124.461 125.56L122.295 121.929H119.563L123.054 127.762V131.081H125.642V127.802L129.146 121.929Z" fill="#141E39"/>
</svg>
